Coordinates
version=1
nRows=12
nColumns=24
inDegrees=yes

Units are S.I. units (second, meters, Newtons, ...)
Angles are in degrees.

endheader
time	pelvis_tilt	pelvis_list	pelvis_rotation	pelvis_tx	pelvis_ty	pelvis_tz	hip_flexion_r	hip_adduction_r	hip_rotation_r	knee_angle_r	ankle_angle_r	subtalar_angle_r	mtp_angle_r	hip_flexion_l	hip_adduction_l	hip_rotation_l	knee_angle_l	ankle_angle_l	subtalar_angle_l	mtp_angle_l	lumbar_extension	lumbar_bending	lumbar_rotation
      3.22000000	    -14.24605670	     -9.75057182	      7.59359376	      1.37599204	     -0.01948309	     -0.42022362	     28.47260389	      8.38393166	    -12.42432052	    -16.16127293	     -5.69764164	      3.14087299	     10.87510130	     17.75418096	    -16.76333645	     -8.03274536	    -60.24036731	    -27.10484379	     11.72487278	     23.19862475	     14.57735518	     10.07891522	     -6.63996435
      3.22500000	    -14.16384569	     -9.62317661	      7.37926486	      1.38195106	     -0.01841100	     -0.41949418	     27.79425153	      8.51051585	    -12.11833942	    -15.80386453	     -5.51480569	      3.33590485	     10.92494158	     18.34210942	    -16.63740815	     -8.00474727	    -60.86987937	    -26.34313002	     11.46182249	     23.53916287	     14.45645581	     10.00036831	     -6.34099598
      3.23000000	    -14.06046914	     -9.44491406	      7.09309864	      1.38791377	     -0.01728095	     -0.41869699	     27.07867166	      8.62009676	    -11.75131496	    -15.43827041	     -5.37055813	      3.51290602	     10.95587967	     18.83664640	    -16.48079798	     -8.08017865	    -61.39618098	    -25.62591482	     11.30523108	     23.91368298	     14.29683819	      9.89951398	     -5.89284337
      3.23500000	    -13.96284621	     -9.25925396	      6.82276422	      1.39382266	     -0.01618601	     -0.41790485	     26.36710620	      8.71167058	    -11.35300298	    -15.06631443	     -5.21518054	      3.63779566	     10.96716732	     19.34120379	    -16.30668090	     -8.13610187	    -61.86536537	    -24.95926542	     11.24890945	     24.34426645	     14.14311759	      9.77774254	     -5.49593509
      3.24000000	    -13.87511330	     -9.07112554	      6.54032950	      1.39971270	     -0.01512122	     -0.41710759	     25.66275455	      8.79723380	    -10.94752263	    -14.68730104	     -5.07355503	      3.74644389	     10.96278167	     19.84303567	    -16.13179720	     -8.21261394	    -62.27209148	    -24.31928811	     11.26927478	     24.81619192	     14.00332078	      9.65451838	     -5.09721826
      3.24500000	    -13.79105703	     -8.86947008	      6.24341974	      1.40557171	     -0.01407768	     -0.41629471	     24.95848910	      8.86825346	    -10.52364810	    -14.30203504	     -4.94054081	      3.83589585	     10.94913659	     20.33103314	    -15.94457626	     -8.31165895	    -62.61307951	    -23.69665132	     11.36522136	     25.32119322	     13.86514979	      9.51848402	     -4.68792345
      3.25000000	    -13.70968220	     -8.65751373	      5.93365785	      1.41141053	     -0.01305688	     -0.41545991	     24.25355479	      8.92664401	    -10.09480228	    -13.91028648	     -4.81831396	      3.91120990	     10.93195230	     20.80532258	    -15.74875998	     -8.43107741	    -62.89062416	    -23.08048720	     11.51772695	     25.84330591	     13.72889246	      9.37175250	     -4.26753525
      3.25500000	    -13.62763502	     -8.43434933	      5.60984657	      1.41721773	     -0.01206345	     -0.41462617	     23.54531520	      8.96952962	     -9.64809685	    -13.51381132	     -4.70362591	      3.97996933	     10.91703918	     21.26292976	    -15.54403868	     -8.57513736	    -63.10836393	    -22.46128177	     11.72352898	     26.37625252	     13.58997032	      9.21605794	     -3.83604270
      3.26000000	    -13.55331197	     -8.20399230	      5.28120092	      1.42301194	     -0.01110993	     -0.41378242	     22.84177163	      8.99650069	     -9.21000140	    -13.10902219	     -4.59017977	      4.05548710	     10.91101868	     21.71790366	    -15.33095574	     -8.73362558	    -63.27098440	    -21.83235348	     11.95141042	     26.88367908	     13.46489474	      9.05190433	     -3.41270558
      3.26500000	    -13.48045329	     -7.96450433	      4.94069505	      1.42877513	     -0.01019344	     -0.41291793	     22.13973952	      9.00911377	     -8.76801050	    -12.70173098	     -4.48330490	      4.13152188	     10.91236938	     22.16173058	    -15.11150988	     -8.91162764	    -63.37993962	    -21.18928581	     12.20343927	     27.36661678	     13.33921387	      8.87819639	     -2.97825147
      3.27000000	    -13.35164621	     -7.73570365	      4.58716025	      1.43449110	     -0.00925500	     -0.41202821	     21.36607470	      9.04473979	     -8.24502483	    -12.26158701	     -4.41662530	      4.09992845	     10.89272711	     22.53268783	    -14.91808032	     -9.12023600	    -63.43196570	    -20.55366581	     12.40777072	     27.84455473	     13.14593860	      8.72384073	     -2.52397208
      3.27500000	    -13.33258075	     -7.46914100	      4.24679890	      1.44023562	     -0.00847334	     -0.41116810	     20.72625754	      8.99702803	     -7.87125155	    -11.86257593	     -4.28154013	      4.25066501	     10.92278404	     23.01630228	    -14.65501384	     -9.30514936	    -63.43916263	    -19.88027462	     12.67711587	     28.21653765	     13.09012665	      8.50890410	     -2.11862660
